<svg xmlns="http://www.w3.org/2000/svg" width="124" height="150" viewBox="0 0 92 111">
    <defs>
        <style>
            .a { fill: #76B42D; }
            .b { fill: #fff; }
        </style>
    </defs>
    <g transform="translate(-70.866 -137.29)">
        <path class="a" d="M149.393,150.757a45.988,45.988,0,0,0-65.054,65.02.06.06,0,0,0,.013.013l32.514,32.5,32.527-32.512A45.96,45.96,0,0,0,149.393,150.757Z" transform="translate(0)"></path>
        <g transform="translate(87.283 160.562)">
            <path class="b" d="M154.063,261.5h-2.04v-2.711h2.04v-1.924c0-3.236,1.895-4.926,4.693-4.926a6.952,6.952,0,0,1,2.886.612l-.7,2.769a5.387,5.387,0,0,0-1.691-.379c-1.166,0-1.69.7-1.69,1.895v1.953h3.585L160.3,261.5h-2.74v11.077h-3.5Z" transform="translate(-151.828 -251.935)"></path>
            <path class="b" d="M205.3,284.395h2.944l.379,1.545a5.243,5.243,0,0,1,3.789-1.895,3.612,3.612,0,0,1,1.954.554l-1.225,2.944a2.943,2.943,0,0,0-1.574-.466,4.164,4.164,0,0,0-2.8,1.37v9.736H205.3Z" transform="translate(-194.32 -277.544)"></path>
            <path class="b" d="M251.714,291.3c0-4.139,2.273-7.258,6.208-7.258,3.878,0,6.122,2.8,6.122,7.375v.816h-8.833c.058,2.128,1.574,3.5,3.877,3.5a6.926,6.926,0,0,0,3.5-.933l1.049,2.39a9.228,9.228,0,0,1-4.868,1.283C253.725,298.475,251.714,295.035,251.714,291.3Zm8.8-1.487c-.058-1.574-.816-3.119-2.652-3.119-1.719,0-2.682,1.458-2.682,3.119Z" transform="translate(-231.337 -277.544)"></path>
            <path class="b" d="M320.382,294.6a7.058,7.058,0,0,0,3.76,1.137c1.4,0,2.42-.408,2.42-1.458,0-2.332-6.472-1.457-6.472-6.063,0-2.449,1.983-4.169,5.218-4.169a12.031,12.031,0,0,1,4.052.671v2.945a9.843,9.843,0,0,0-3.906-.875c-1.166,0-1.952.35-1.952,1.254,0,2.186,6.471,1.341,6.471,6.151,0,3.031-2.624,4.285-5.6,4.285a9.836,9.836,0,0,1-5.072-1.341Z" transform="translate(-285.243 -277.544)"></path>
            <path class="b" d="M384.565,251.935h3.468V260.3a7.244,7.244,0,0,1,4.576-1.866c2.186,0,4.4,1.079,4.4,5.014v9.124h-3.468v-8.046c0-1.691-.35-3.061-2.128-3.061a5.567,5.567,0,0,0-3.381,1.458v9.649h-3.468Z" transform="translate(-337.293 -251.935)"></path>
            <path class="b" d="M151.06,388.92a16.161,16.161,0,0,1,5.218-.875c4.956,0,7.551,2.8,7.551,7.2a6.855,6.855,0,0,1-7.172,7.229,7.369,7.369,0,0,1-2.127-.321v6.938H151.06Zm5.335,10.669c2.565,0,3.877-1.69,3.877-4.343,0-2.944-1.632-4.343-4.11-4.343a5.807,5.807,0,0,0-1.632.233v8.1A4.824,4.824,0,0,0,156.4,399.589Z" transform="translate(-151.06 -360.49)"></path>
            <path class="b" d="M223.175,395.246c0-4.14,2.769-7.2,6.879-7.2s6.909,3.061,6.909,7.2-2.8,7.229-6.909,7.229S223.175,399.386,223.175,395.246Zm10.2,0c0-2.536-1.137-4.4-3.324-4.4s-3.323,1.866-3.323,4.4c0,2.565,1.137,4.43,3.323,4.43S233.378,397.81,233.378,395.246Z" transform="translate(-208.576 -360.49)"></path>
            <path class="b" d="M303.193,389.773h3.5v13.788h-3.5Z" transform="translate(-272.395 -361.868)"></path>
            <path class="b" d="M336.166,388.395h2.973l.35,1.545a7.7,7.7,0,0,1,4.723-1.895c2.186,0,4.431,1.079,4.431,5.015v9.124h-3.5v-8.046c0-1.69-.35-3.061-2.128-3.061a5.637,5.637,0,0,0-3.381,1.458v9.649h-3.47Z" transform="translate(-298.692 -360.49)"></path>
            <path class="b" d="M408.6,383.5v-7.667h-2.477V373.12H408.6v-3.206l3.47-1.021v4.227h4.168l-.845,2.711h-3.323v6.822c0,1.282.437,1.748,1.341,1.748a3.908,3.908,0,0,0,2.1-.67l1.05,2.39a7.881,7.881,0,0,1-4.023,1.079C410.086,387.2,408.6,385.8,408.6,383.5Z" transform="translate(-354.486 -345.216)"></path>
        </g>
    </g>
</svg>
